<svg version="1.1" xmlns="http://www.w3.org/2000/svg" xmlns:xlink="http://www.w3.org/1999/xlink" width="92.71052" height="61.76734" viewBox="0,0,92.71052,61.76734"><defs><linearGradient x1="240.74611" y1="147.35969" x2="240.74611" y2="209.12702" gradientUnits="userSpaceOnUse" id="color-1"><stop offset="0" stop-color="#ce38b3"/><stop offset="1" stop-color="#9d32b8"/></linearGradient><linearGradient x1="240.85048" y1="153.76585" x2="240.85048" y2="204.05145" gradientUnits="userSpaceOnUse" id="color-2"><stop offset="0" stop-color="#ff66bf"/><stop offset="1" stop-color="#e64dc4"/></linearGradient></defs><g transform="translate(-194.39085,-147.35969)"><g data-paper-data="{&quot;isPaintingLayer&quot;:true}" fill-rule="nonzero" stroke="none" stroke-linecap="butt" stroke-linejoin="miter" stroke-miterlimit="10" stroke-dasharray="" stroke-dashoffset="0" style="mix-blend-mode: normal"><path d="M220,170.77273c0.0437,2.19523 1.6772,5.52347 -0.14714,7.38675c-3.98038,4.06533 -16.44351,1.10441 -17.68427,1.11325c-0.25167,0.00179 -2.14941,0.5572 -2.16859,0.76136c-0.40765,4.33775 1.3989,8.1171 1.45454,12.19319c0.0377,2.7611 -0.08307,5.52398 0,8.28409c0.01057,0.35124 0.72141,0.07488 1.02273,0.25568c0.65243,0.39146 1.95067,1.50556 2.6129,1.50568c15.80327,0.00293 31.6066,-0.03791 47.40983,0c5.03614,0.01208 15.28499,-0.02516 19.66291,1.06932c1.37615,0.34403 5.5391,1.28972 6.88563,0.09563c0.23963,-0.2125 0.55395,-1.35404 0.99123,-2.09677c2.92856,-4.97418 1.24329,-11.41992 1.23295,-17.15983c-0.00038,-0.20809 -0.143,-0.44505 -0.29562,-0.67929c-0.41321,-0.13745 -0.78843,-0.25901 -1.08602,-0.31311c-5.08146,-0.92373 -9.31995,-3.03556 -14.93654,-3.18868c-0.96258,-0.02624 -2.29491,-0.82348 -2.64204,-1.79546c-1.30189,-3.64527 -0.45352,-7.89144 -0.49432,-11.70454c-0.03664,-3.42405 -0.00806,-6.84849 0,-10.27273c0.00097,-0.41386 0.67065,-2.4041 0.21591,-2.40909c-12.86367,-0.14136 -25.58435,0.82362 -38.44318,1c-0.83869,0.0115 -3.72645,1.11988 -6.39057,1.91091c1.97082,4.29053 2.73909,11.00161 2.79966,14.04363zM286.27272,183.59091c1.39207,6.26431 1.12079,14.13573 -1.50732,19.66563c-0.83824,1.76378 0.28787,3.27893 -1.90023,4.52927c-4.57446,2.61398 -8.29624,0.62623 -12.2418,0.48691c-6.16296,-0.21762 -12.55268,-0.99962 -18.60483,-1c-17.93941,-0.00114 -45.11289,2.55362 -53.67763,-1.22159c-3.85401,-1.69878 -1.87672,-10.64551 -1.88637,-13.00568c-0.01994,-4.88055 -4.10773,-11.84 -0.72231,-16.31322c3.32327,-4.39111 18.92591,-2.4206 19.72231,-2.45951c0.34332,-0.01677 -0.92731,-4.01148 -1,-4.31818c-1.08715,-4.58736 -0.94077,-7.98909 -2.27863,-12.29632c-0.07444,-0.23969 -0.16031,-0.61442 -0.21672,-1.02507l-0.9592,-1.6786c0.57601,-1.008 1.4993,-1.82816 2.65144,-2.49549c4.91019,-2.84399 13.9768,-2.91199 18.03037,-2.9136c2.8884,-0.00115 5.77737,0.05707 8.66521,0c2.79154,-0.05517 5.83661,-0.72666 8.60752,-0.72727c5.83963,-0.00129 14.0821,-3.82442 17.49504,0.91405c1.47071,2.0419 0.37003,4.66483 0.36859,6.94958c-0.00005,0.07945 -0.03567,17.61825 0.18182,18.31818c0.44738,1.43973 3.01193,0.21244 4.5,0.45454c3.47168,0.56483 6.88804,2.05642 10.05844,3c0.72075,0.21451 2.65198,0.22289 3.19156,0.85796c1.08495,1.27695 1.53719,2.03604 1.0675,3.01115c0.20607,0.42338 0.36374,0.85559 0.45522,1.26726z" fill="url(#color-1)" stroke-width="0.5"/><path d="M219.95342,170.75453c-0.06057,-3.04202 -0.81873,-9.76912 -2.78955,-14.05965c2.66412,-0.79103 5.55923,-1.90585 6.39792,-1.91735c12.85883,-0.17638 25.64088,-1.13892 38.50455,-0.99756c0.45474,0.00499 -0.21325,1.99672 -0.21422,2.41058c-0.00806,3.42424 -0.02755,6.85993 0.00909,10.28398c0.0408,3.8131 -0.80062,8.08309 0.50127,11.72836c0.34713,0.97198 1.67944,1.77312 2.64202,1.79936c5.61659,0.15312 9.85483,2.26814 14.93629,3.19187c0.29759,0.0541 0.67278,0.1759 1.08599,0.31335c0.15262,0.23424 0.29514,0.47198 0.29552,0.68007c0.01034,5.73991 1.68942,12.20402 -1.23914,17.1782c-0.43728,0.74273 -0.75292,1.88645 -0.99255,2.09895c-1.34653,1.19409 -5.51213,0.25214 -6.88828,-0.09189c-4.37792,-1.09448 -14.64388,-1.04325 -19.68002,-1.05533c-15.80323,-0.03791 -31.67073,-0.01447 -47.474,-0.0174c-0.66223,-0.00012 -1.96206,-1.11682 -2.61449,-1.50828c-0.30132,-0.1808 -1.01256,0.09485 -1.02313,-0.25639c-0.08307,-2.76011 0.03418,-5.53102 -0.00352,-8.29212c-0.05564,-4.07609 -1.8648,-7.87008 -1.45715,-12.20783c0.01918,-0.20416 2.0169,-0.7614 2.26857,-0.76319c1.24076,-0.00884 13.60392,2.95075 17.5843,-1.11458c1.82434,-1.86328 0.19423,-5.20791 0.15053,-7.40314z" data-paper-data="{&quot;noHover&quot;:false,&quot;origItem&quot;:[&quot;Path&quot;,{&quot;applyMatrix&quot;:true,&quot;segments&quot;:[[[220,170.77273],[0,0],[0.0437,2.19523]],[[219.85286,178.15948],[1.82434,-1.86328],[-3.98038,4.06533]],[[202.16859,179.27273],[1.24076,-0.00884],[-0.25167,0.00179]],[[200,180.03409],[0.01918,-0.20416],[-0.40765,4.33775]],[[201.45454,192.22728],[-0.05564,-4.07609],[0.0377,2.7611]],[[201.45454,200.51137],[-0.08307,-2.76011],[0.01057,0.35124]],[[202.47727,200.76705],[-0.30132,-0.1808],[0.65243,0.39146]],[[205.09017,202.27273],[-0.66223,-0.00012],[15.80327,0.00293]],[[252.5,202.27273],[-15.80323,-0.03791],[5.03614,0.01208]],[[272.16291,203.34205],[-4.37792,-1.09448],[1.37615,0.34403]],[[279.04854,203.43768],[-1.34653,1.19409],[0.23963,-0.2125]],[[280.03977,201.34091],[-0.43728,0.74273],[2.92856,-4.97418]],[[281.27272,184.18108],[0.01034,5.73991],[-0.00038,-0.20809]],[[280.9771,183.50179],[0.15262,0.23424],[-0.41321,-0.13745]],[[279.89108,183.18868],[0.29759,0.0541],[-5.08146,-0.92373]],[[264.95454,180],[5.61659,0.15312],[-0.96258,-0.02624]],[[262.3125,178.20454],[0.34713,0.97198],[-1.30189,-3.64527]],[[261.81818,166.5],[0.0408,3.8131],[-0.03664,-3.42405]],[[261.81818,156.22727],[-0.00806,3.42424],[0.00097,-0.41386]],[[262.03409,153.81818],[0.45474,0.00499],[-12.86367,-0.14136]],[[223.59091,154.81818],[12.85883,-0.17638],[-0.83869,0.0115]],[[217.20034,156.72909],[2.66412,-0.79103],[1.97082,4.29053]],[[220,170.77272],[-0.06057,-3.04202],[0,0]]],&quot;closed&quot;:true,&quot;fillColor&quot;:[0.6,0.4,1],&quot;strokeWidth&quot;:0.5}]}" fill="url(#color-2)" stroke-width="0.25"/></g></g></svg>